<svg xmlns="http://www.w3.org/2000/svg" version="1.1" xmlns:xlink="http://www.w3.org/1999/xlink" xmlns:svgjs="http://svgjs.dev/svgjs" width="1500" height="742" viewBox="0 0 1500 742"><g transform="matrix(1,0,0,1,-0.9090909090909918,-0.9652904845332841)"><svg viewBox="0 0 396 196" data-background-color="#c55501" preserveAspectRatio="xMidYMid meet" height="742" width="1500" xmlns="http://www.w3.org/2000/svg" xmlns:xlink="http://www.w3.org/1999/xlink"><g id="tight-bounds" transform="matrix(1,0,0,1,0.2400000000000091,0.2549823921408745)"><svg viewBox="0 0 395.52 195.489830576627" height="195.489830576627" width="395.52"><g><svg viewBox="0 0 395.52 195.489830576627" height="195.489830576627" width="395.52"><g><svg viewBox="0 0 395.52 195.489830576627" height="195.489830576627" width="395.52"><g id="textblocktransform"><svg viewBox="0 0 395.52 195.489830576627" height="195.489830576627" width="395.52" id="textblock"><g><svg viewBox="0 0 395.52 195.489830576627" height="195.489830576627" width="395.52"><g transform="matrix(1,0,0,1,0,0)"><svg width="395.52" viewBox="-2.0462962962962963 -21.8125 49.096296296296295 24.266319472215" height="195.489830576627" data-palette-color="#fcde30"><g class="wordmark-text-0" data-fill-palette-color="primary" id="text-0"><path d="M44.25-7.6L44.25-7.6Q45.35-8.5 46.18-8.33 47-8.15 47.05-6.75L47.05-6.75Q47.05-6.3 46.85-5.85 46.65-5.4 46.4-5.08 46.15-4.75 45.65-4.35 45.15-3.95 44.88-3.75 44.6-3.55 44.03-3.18 43.45-2.8 43.3-2.7L43.3-2.7Q41.75-1.65 40.3-0.45L40.3-0.45Q38.35 1.1 36.25 1.7L36.25 1.7Q33.8 2.4 32.45 2.45L32.45 2.45Q31.05 2.5 29 1.9L29 1.9Q27.05 1.4 25.88 0.58 24.7-0.25 24.05-1.55 23.4-2.85 23.38-4.83 23.35-6.8 23.85-9.3L23.85-9.3Q24.3-11.85 25.35-15.45L25.35-15.45Q25.65-16.35 25.15-16.35L25.15-16.35Q23.8-16.35 19.9-11.55 16-6.75 13.85-2.55L13.85-2.55Q12.35 0.35 11.35 0.95 10.35 1.55 9.1 0.35L9.1 0.35Q8.05-0.6 8.1-1.48 8.15-2.35 9.4-5.2L9.4-5.2Q10.45-7.3 10.45-8.1L10.45-8.1Q10.45-8.8 11.5-11L11.5-11Q12.2-13.5 11.95-13.65L11.95-13.65Q11.4-13.65 9.78-11.88 8.15-10.1 6.38-7.63 4.6-5.15 3.7-3.45L3.7-3.45Q2.3-0.85 1.15-0.15 0 0.55-1.15-0.45L-1.15-0.45Q-2.25-1.45-2-2.93-1.75-4.4 0-7.75L0-7.75Q0.5-8.8 0.98-10.83 1.45-12.85 1.9-13.7L1.9-13.7Q3.55-17.25 5.5-18.75L5.5-18.75Q5.95-19.1 6.45-19.38 6.95-19.65 7.48-19.73 8-19.8 8.18-19.4 8.35-19 8.15-18.05L8.15-18.05Q7.7-16.5 8.5-16.65L8.5-16.65Q9.1-16.7 9.9-18L9.9-18Q11.05-19.75 12.6-20.85L12.6-20.85Q13.2-21.25 13.6-21.45L13.6-21.45Q14.1-21.65 14.25-21.7L14.25-21.7Q14.5-21.85 14.95-21.8 15.4-21.75 15.6-21.7L15.6-21.7Q15.8-21.7 16.4-21.5L16.4-21.5Q17.05-21.3 17.4-21.25L17.4-21.25Q18.8-20.95 18.8-20.45L18.8-20.45Q18.9-20.35 18.95-18.95L18.95-18.95Q19.05-18.3 19.2-18 19.35-17.7 19.8-17.73 20.25-17.75 20.9-18.07 21.55-18.4 22.85-19.25L22.85-19.25Q25.85-21.15 28-21.45L28-21.45Q29.6-21.6 30-21.38 30.4-21.15 30.85-20.2L30.85-20.2Q31.45-18.65 31.1-16.25 30.75-13.85 29.8-11.75L29.8-11.75Q28.7-9.65 28.7-8.55L28.7-8.55Q28.7-7.65 28.15-5.9L28.15-5.9Q27.6-4.4 28.33-3.1 29.05-1.8 30.6-1.5L30.6-1.5Q31.5-1.35 32.95-1.65L32.95-1.65Q33.35-1.75 37.8-3.65L37.8-3.65Q37.8-3.65 38.73-4.2L38.73-4.2Q39.65-4.75 40.73-5.38 41.8-6 42.85-6.65 43.9-7.3 44.25-7.6Z" fill="#fcde30" data-fill-palette-color="primary"></path></g></svg></g></svg></g></svg></g></svg></g></svg></g><defs></defs></svg><rect width="395.52" height="195.489830576627" fill="none" stroke="none" visibility="hidden"></rect></g></svg></g></svg>