<svg xmlns="http://www.w3.org/2000/svg" version="1.1" xmlns:xlink="http://www.w3.org/1999/xlink" xmlns:svgjs="http://svgjs.dev/svgjs" width="1500" height="939" viewBox="0 0 1500 939"><g transform="matrix(1,0,0,1,-0.9090909090909918,-1.5145161290323017)"><svg viewBox="0 0 396 248" data-background-color="#ffffff" preserveAspectRatio="xMidYMid meet" height="939" width="1500" xmlns="http://www.w3.org/2000/svg" xmlns:xlink="http://www.w3.org/1999/xlink"><g id="tight-bounds" transform="matrix(1,0,0,1,0.2400000000000091,0.4000000000000057)"><svg viewBox="0 0 395.52 247.2" height="247.2" width="395.52"><g><svg></svg></g><g><svg viewBox="0 0 395.52 247.2" height="247.2" width="395.52"><mask id="b5f043a8-72e4-40eb-b584-3bb61801c23f"><rect width="640" height="400" fill="white"></rect><g transform="matrix(1,0,0,1,134.84432639754792,37.08)"><svg viewBox="0 0 125.83134720490416 173.04" height="173.04" width="125.83134720490416"><g><svg viewBox="0 0 125.83134720490416 173.04" height="173.04" width="125.83134720490416"><g><svg viewBox="0 0 168.2146243769111 231.32438179161642" height="173.04" width="125.83134720490416"><g><svg viewBox="0 0 168.2146243769111 231.32438179161642" height="231.32438179161642" width="168.2146243769111"><g id="SvgjsG3423"><svg viewBox="0 0 168.2146243769111 231.32438179161642" height="231.32438179161642" width="168.2146243769111" id="SvgjsSvg3422"><g><svg viewBox="0 0 168.2146243769111 171.9706128" height="171.9706128" width="168.2146243769111"><g transform="matrix(1,0,0,1,0,0)"><svg width="168.2146243769111" viewBox="0.8999999999999999 -32.05 32.35 33.05" height="171.9706128" data-palette-color="#c9378b"><path d="M31.2-31.05L32.25 0 24.4 0 24.4-16.2 23.95-16.2 21 0 12.95 0 10.15-16.2 9.65-16.2 9.65 0 1.9 0 2.95-31.05 14.2-31.05 17-14.25 17.4-14.25 20.1-31.05 31.2-31.05Z" opacity="1" transform="matrix(1,0,0,1,0,0)" fill="black" class="wordmark-text-0" id="SvgjsPath3421" stroke-width="1" stroke="black" stroke-linejoin="round"></path></svg></g></svg></g><g transform="matrix(1,0,0,1,32.43799325599002,211.3020347259883)"><svg viewBox="0 0 103.33863786493106 20.022347065628104" height="20.022347065628104" width="103.33863786493106"><g transform="matrix(1,0,0,1,0,0)"><svg width="103.33863786493106" viewBox="2 -40.65 266.77 52.5" height="20.022347065628104" data-palette-color="#000000"><path d="M10.9-34.55Q17.15-34.55 20.43-31.78 23.7-29 23.7-23.6L23.7-23.6Q23.7-17.85 20.48-15 17.25-12.15 11.35-12.15L11.35-12.15 9.35-12.15 9.35 0 3 0 3-34.55 10.9-34.55ZM11-16.9Q14.25-16.9 15.7-18.4 17.15-19.9 17.15-23.55L17.15-23.55Q17.15-26.85 15.7-28.35 14.25-29.85 11.05-29.85L11.05-29.85 9.35-29.85 9.35-16.9 11-16.9ZM38.95-27.1Q40.1-27.1 41-26.75L41-26.75 40-20.85Q39-21.1 38.15-21.1L38.15-21.1Q36.25-21.1 35.15-19.45 34.05-17.8 33.45-14.55L33.45-14.55 33.45 0 27.3 0 27.3-26.45 32.65-26.45 33.1-21.85Q34.95-27.1 38.95-27.1L38.95-27.1ZM62.7-13.85Q62.7-13.4 62.55-11.3L62.55-11.3 48.9-11.3Q49.1-7.2 50.32-5.58 51.55-3.95 53.8-3.95L53.8-3.95Q55.35-3.95 56.6-4.48 57.85-5 59.3-6.15L59.3-6.15 61.85-2.65Q58.35 0.75 53.45 0.75L53.45 0.75Q48.25 0.75 45.47-2.85 42.7-6.45 42.7-13L42.7-13Q42.7-19.55 45.35-23.35 48-27.15 52.85-27.15L52.85-27.15Q57.5-27.15 60.1-23.78 62.7-20.4 62.7-13.85L62.7-13.85ZM56.7-15.3L56.7-15.65Q56.7-19.4 55.8-21.13 54.9-22.85 52.9-22.85L52.9-22.85Q51.05-22.85 50.07-21.18 49.1-19.5 48.9-15.3L48.9-15.3 56.7-15.3ZM78.14-5L80.29-1.2Q77.84 0.75 74.54 0.75L74.54 0.75Q71.09 0.75 69.29-1.23 67.49-3.2 67.49-6.6L67.49-6.6 67.49-22 64.39-22 64.39-26.45 67.49-26.45 67.49-32.3 73.64-33.05 73.64-26.45 78.64-26.45 78.04-22 73.64-22 73.64-6.6Q73.64-4.2 75.69-4.2L75.69-4.2Q76.34-4.2 76.84-4.38 77.34-4.55 78.14-5L78.14-5ZM93.99-5L96.14-1.2Q93.69 0.75 90.39 0.75L90.39 0.75Q86.94 0.75 85.14-1.23 83.34-3.2 83.34-6.6L83.34-6.6 83.34-22 80.24-22 80.24-26.45 83.34-26.45 83.34-32.3 89.49-33.05 89.49-26.45 94.49-26.45 93.89-22 89.49-22 89.49-6.6Q89.49-4.2 91.54-4.2L91.54-4.2Q92.19-4.2 92.69-4.38 93.19-4.55 93.99-5L93.99-5ZM117.34-26.45L110.34 0.1Q109.04 4.9 106.14 7.65 103.24 10.4 98.39 10.85L98.39 10.85 97.69 6.5Q100.84 5.85 102.41 4.42 103.99 3 104.89 0L104.89 0 102.59 0 95.89-26.45 102.14-26.45 106.54-4.1 111.24-26.45 117.34-26.45ZM130.08-26.45L136.23-26.45 136.23 0 130.08 0 130.08-26.45ZM133.13-39.65Q134.78-39.65 135.81-38.6 136.83-37.55 136.83-35.9L136.83-35.9Q136.83-34.3 135.81-33.25 134.78-32.2 133.13-32.2L133.13-32.2Q131.48-32.2 130.46-33.25 129.43-34.3 129.43-35.9L129.43-35.9Q129.43-37.55 130.46-38.6 131.48-39.65 133.13-39.65L133.13-39.65ZM154.28-27.15Q157.13-27.15 158.78-25.1 160.43-23.05 160.43-19.6L160.43-19.6 160.43 0 154.28 0 154.28-18.9Q154.28-20.8 153.76-21.63 153.23-22.45 152.23-22.45L152.23-22.45Q150.13-22.45 148.08-18.5L148.08-18.5 148.08 0 141.93 0 141.93-26.45 147.28-26.45 147.73-23Q149.08-25.1 150.61-26.13 152.13-27.15 154.28-27.15L154.28-27.15ZM187.48-35.25Q190.13-35.25 192.15-34.38 194.18-33.5 196.08-31.7L196.08-31.7 193.03-28.05Q191.73-29.25 190.5-29.83 189.28-30.4 187.83-30.4L187.83-30.4Q184.83-30.4 183.13-27.4 181.43-24.4 181.43-17.35L181.43-17.35Q181.43-10.4 183.13-7.38 184.83-4.35 187.93-4.35L187.93-4.35Q189.48-4.35 190.63-4.98 191.78-5.6 193.33-6.9L193.33-6.9 196.38-3.4Q194.78-1.6 192.53-0.43 190.28 0.75 187.48 0.75L187.48 0.75Q181.63 0.75 178.18-3.8 174.73-8.35 174.73-17.35L174.73-17.35Q174.73-23.3 176.38-27.3 178.03-31.3 180.9-33.27 183.78-35.25 187.48-35.25L187.48-35.25ZM209.02-27.15Q214.02-27.15 216.8-23.65 219.57-20.15 219.57-13.25L219.57-13.25Q219.57-6.65 216.77-2.95 213.97 0.75 209.02 0.75L209.02 0.75Q204.07 0.75 201.27-2.88 198.47-6.5 198.47-13.25L198.47-13.25Q198.47-19.95 201.27-23.55 204.07-27.15 209.02-27.15L209.02-27.15ZM209.02-22.5Q206.87-22.5 205.87-20.38 204.87-18.25 204.87-13.25L204.87-13.25Q204.87-8.2 205.87-6.08 206.87-3.95 209.02-3.95L209.02-3.95Q211.17-3.95 212.17-6.08 213.17-8.2 213.17-13.25L213.17-13.25Q213.17-18.3 212.17-20.4 211.17-22.5 209.02-22.5L209.02-22.5ZM237.07-37.7L243.22-37.05 243.22 0 237.77 0 237.47-3.05Q235.12 0.75 231.42 0.75L231.42 0.75Q227.32 0.75 225.15-2.93 222.97-6.6 222.97-13.2L222.97-13.2Q222.97-17.4 224.1-20.58 225.22-23.75 227.22-25.45 229.22-27.15 231.82-27.15L231.82-27.15Q235.02-27.15 237.07-24.5L237.07-24.5 237.07-37.7ZM233.17-3.9Q234.32-3.9 235.25-4.7 236.17-5.5 237.07-7L237.07-7 237.07-19.85Q235.47-22.55 233.42-22.55L233.42-22.55Q229.37-22.55 229.37-13.25L229.37-13.25Q229.37-8.2 230.37-6.05 231.37-3.9 233.17-3.9L233.17-3.9ZM267.77-13.85Q267.77-13.4 267.62-11.3L267.62-11.3 253.97-11.3Q254.17-7.2 255.39-5.58 256.62-3.95 258.87-3.95L258.87-3.95Q260.42-3.95 261.67-4.48 262.92-5 264.37-6.15L264.37-6.15 266.92-2.65Q263.42 0.75 258.52 0.75L258.52 0.75Q253.32 0.75 250.54-2.85 247.77-6.45 247.77-13L247.77-13Q247.77-19.55 250.42-23.35 253.07-27.15 257.92-27.15L257.92-27.15Q262.57-27.15 265.17-23.78 267.77-20.4 267.77-13.85L267.77-13.85ZM261.77-15.3L261.77-15.65Q261.77-19.4 260.87-21.13 259.97-22.85 257.97-22.85L257.97-22.85Q256.12-22.85 255.14-21.18 254.17-19.5 253.97-15.3L253.97-15.3 261.77-15.3Z" opacity="1" transform="matrix(1,0,0,1,0,0)" fill="black" class="slogan-text-1" id="SvgjsPath3420" stroke-width="1" stroke="black" stroke-linejoin="round"></path></svg></g></svg></g></svg></g></svg></g><g></g></svg></g></svg></g></svg></g></mask><g transform="matrix(1,0,0,1,134.84432639754792,37.08)"><svg viewBox="0 0 125.83134720490416 173.04" height="173.04" width="125.83134720490416"><g><svg viewBox="0 0 125.83134720490416 173.04" height="173.04" width="125.83134720490416"><g><svg viewBox="0 0 168.2146243769111 231.32438179161642" height="173.04" width="125.83134720490416"><g><svg viewBox="0 0 168.2146243769111 231.32438179161642" height="231.32438179161642" width="168.2146243769111"><g id="textblocktransform"><svg viewBox="0 0 168.2146243769111 231.32438179161642" height="231.32438179161642" width="168.2146243769111" id="textblock"><g><svg viewBox="0 0 168.2146243769111 171.9706128" height="171.9706128" width="168.2146243769111"><g transform="matrix(1,0,0,1,0,0)"><svg width="168.2146243769111" viewBox="0.8999999999999999 -32.05 32.35 33.05" height="171.9706128" data-palette-color="#c9378b"><path d="M31.2-31.05L32.25 0 24.4 0 24.4-16.2 23.95-16.2 21 0 12.95 0 10.15-16.2 9.65-16.2 9.65 0 1.9 0 2.95-31.05 14.2-31.05 17-14.25 17.4-14.25 20.1-31.05 31.2-31.05Z" opacity="1" transform="matrix(1,0,0,1,0,0)" fill="#c9378b" class="wordmark-text-0" data-fill-palette-color="primary" id="text-0"></path></svg></g></svg></g><g transform="matrix(1,0,0,1,32.43799325599002,211.3020347259883)"><svg viewBox="0 0 103.33863786493106 20.022347065628104" height="20.022347065628104" width="103.33863786493106"><g transform="matrix(1,0,0,1,0,0)"><svg width="103.33863786493106" viewBox="2 -40.65 266.77 52.5" height="20.022347065628104" data-palette-color="#000000"><path d="M10.9-34.55Q17.15-34.55 20.43-31.78 23.7-29 23.7-23.6L23.7-23.6Q23.7-17.85 20.48-15 17.25-12.15 11.35-12.15L11.35-12.15 9.35-12.15 9.35 0 3 0 3-34.55 10.9-34.55ZM11-16.9Q14.25-16.9 15.7-18.4 17.15-19.9 17.15-23.55L17.15-23.55Q17.15-26.85 15.7-28.35 14.25-29.85 11.05-29.85L11.05-29.85 9.35-29.85 9.35-16.9 11-16.9ZM38.95-27.1Q40.1-27.1 41-26.75L41-26.75 40-20.85Q39-21.1 38.15-21.1L38.15-21.1Q36.25-21.1 35.15-19.45 34.05-17.8 33.45-14.55L33.45-14.55 33.45 0 27.3 0 27.3-26.45 32.65-26.45 33.1-21.85Q34.95-27.1 38.95-27.1L38.95-27.1ZM62.7-13.85Q62.7-13.4 62.55-11.3L62.55-11.3 48.9-11.3Q49.1-7.2 50.32-5.58 51.55-3.95 53.8-3.95L53.8-3.95Q55.35-3.95 56.6-4.48 57.85-5 59.3-6.15L59.3-6.15 61.85-2.65Q58.35 0.75 53.45 0.75L53.45 0.75Q48.25 0.75 45.47-2.85 42.7-6.45 42.7-13L42.7-13Q42.7-19.55 45.35-23.35 48-27.15 52.85-27.15L52.85-27.15Q57.5-27.15 60.1-23.78 62.7-20.4 62.7-13.85L62.7-13.85ZM56.7-15.3L56.7-15.65Q56.7-19.4 55.8-21.13 54.9-22.85 52.9-22.85L52.9-22.85Q51.05-22.85 50.07-21.18 49.1-19.5 48.9-15.3L48.9-15.3 56.7-15.3ZM78.14-5L80.29-1.2Q77.84 0.75 74.54 0.75L74.54 0.75Q71.09 0.75 69.29-1.23 67.49-3.2 67.49-6.6L67.49-6.6 67.49-22 64.39-22 64.39-26.45 67.49-26.45 67.49-32.3 73.64-33.05 73.64-26.45 78.64-26.45 78.04-22 73.64-22 73.64-6.6Q73.64-4.2 75.69-4.2L75.69-4.2Q76.34-4.2 76.84-4.38 77.34-4.55 78.14-5L78.14-5ZM93.99-5L96.14-1.2Q93.69 0.75 90.39 0.75L90.39 0.75Q86.94 0.75 85.14-1.23 83.34-3.2 83.34-6.6L83.34-6.6 83.34-22 80.24-22 80.24-26.45 83.34-26.45 83.34-32.3 89.49-33.05 89.49-26.45 94.49-26.45 93.89-22 89.49-22 89.49-6.6Q89.49-4.2 91.54-4.2L91.54-4.2Q92.19-4.2 92.69-4.38 93.19-4.55 93.99-5L93.99-5ZM117.34-26.45L110.34 0.1Q109.04 4.9 106.14 7.65 103.24 10.4 98.39 10.85L98.39 10.85 97.69 6.5Q100.84 5.85 102.41 4.42 103.99 3 104.89 0L104.89 0 102.59 0 95.89-26.45 102.14-26.45 106.54-4.1 111.24-26.45 117.34-26.45ZM130.08-26.45L136.23-26.45 136.23 0 130.08 0 130.08-26.45ZM133.13-39.65Q134.78-39.65 135.81-38.6 136.83-37.55 136.83-35.9L136.83-35.9Q136.83-34.3 135.81-33.25 134.78-32.2 133.13-32.2L133.13-32.2Q131.48-32.2 130.46-33.25 129.43-34.3 129.43-35.9L129.43-35.9Q129.43-37.55 130.46-38.6 131.48-39.65 133.13-39.65L133.13-39.65ZM154.28-27.15Q157.13-27.15 158.78-25.1 160.43-23.05 160.43-19.6L160.43-19.6 160.43 0 154.28 0 154.28-18.9Q154.28-20.8 153.76-21.63 153.23-22.45 152.23-22.45L152.23-22.45Q150.13-22.45 148.08-18.5L148.08-18.5 148.08 0 141.93 0 141.93-26.45 147.28-26.45 147.73-23Q149.08-25.1 150.61-26.13 152.13-27.15 154.28-27.15L154.28-27.15ZM187.48-35.25Q190.13-35.25 192.15-34.38 194.18-33.5 196.08-31.7L196.08-31.7 193.03-28.05Q191.73-29.25 190.5-29.83 189.28-30.4 187.83-30.4L187.83-30.4Q184.83-30.4 183.13-27.4 181.43-24.4 181.43-17.35L181.43-17.35Q181.43-10.4 183.13-7.38 184.83-4.35 187.93-4.35L187.93-4.35Q189.48-4.35 190.63-4.98 191.78-5.6 193.33-6.9L193.33-6.9 196.38-3.4Q194.78-1.6 192.53-0.43 190.28 0.75 187.48 0.75L187.48 0.75Q181.63 0.75 178.18-3.8 174.73-8.35 174.73-17.35L174.73-17.35Q174.73-23.3 176.38-27.3 178.03-31.3 180.9-33.27 183.78-35.25 187.48-35.25L187.48-35.25ZM209.02-27.15Q214.02-27.15 216.8-23.65 219.57-20.15 219.57-13.25L219.57-13.25Q219.57-6.65 216.77-2.95 213.97 0.75 209.02 0.75L209.02 0.75Q204.07 0.75 201.27-2.88 198.47-6.5 198.47-13.25L198.47-13.25Q198.47-19.95 201.27-23.55 204.07-27.15 209.02-27.15L209.02-27.15ZM209.02-22.5Q206.87-22.5 205.87-20.38 204.87-18.25 204.87-13.25L204.87-13.25Q204.87-8.2 205.87-6.08 206.87-3.95 209.02-3.95L209.02-3.95Q211.17-3.95 212.17-6.08 213.17-8.2 213.17-13.25L213.17-13.25Q213.17-18.3 212.17-20.4 211.17-22.5 209.02-22.5L209.02-22.5ZM237.07-37.7L243.22-37.05 243.22 0 237.77 0 237.47-3.05Q235.12 0.75 231.42 0.75L231.42 0.75Q227.32 0.75 225.15-2.93 222.97-6.6 222.97-13.2L222.97-13.2Q222.97-17.4 224.1-20.58 225.22-23.75 227.22-25.45 229.22-27.15 231.82-27.15L231.82-27.15Q235.02-27.15 237.07-24.5L237.07-24.5 237.07-37.7ZM233.17-3.9Q234.32-3.9 235.25-4.7 236.17-5.5 237.07-7L237.07-7 237.07-19.85Q235.47-22.55 233.42-22.55L233.42-22.55Q229.37-22.55 229.37-13.25L229.37-13.25Q229.37-8.2 230.37-6.05 231.37-3.9 233.17-3.9L233.17-3.9ZM267.77-13.85Q267.77-13.4 267.62-11.3L267.62-11.3 253.97-11.3Q254.17-7.2 255.39-5.58 256.62-3.95 258.87-3.95L258.87-3.95Q260.42-3.95 261.67-4.48 262.92-5 264.37-6.15L264.37-6.15 266.92-2.65Q263.42 0.75 258.52 0.75L258.52 0.75Q253.32 0.75 250.54-2.85 247.77-6.45 247.77-13L247.77-13Q247.77-19.55 250.42-23.35 253.07-27.15 257.92-27.15L257.92-27.15Q262.57-27.15 265.17-23.78 267.77-20.4 267.77-13.85L267.77-13.85ZM261.77-15.3L261.77-15.65Q261.77-19.4 260.87-21.13 259.97-22.85 257.97-22.85L257.97-22.85Q256.12-22.85 255.14-21.18 254.17-19.5 253.97-15.3L253.97-15.3 261.77-15.3Z" opacity="1" transform="matrix(1,0,0,1,0,0)" fill="#000000" class="slogan-text-1" data-fill-palette-color="secondary" id="text-1"></path></svg></g></svg></g></svg></g></svg></g><g></g></svg></g></svg></g></svg></g><g mask="url(#b5f043a8-72e4-40eb-b584-3bb61801c23f)"><g transform="matrix(2.7461802690412873, 0, 0, 2.7461802690412873, 75.16603184765192, 1)"><svg xmlns="http://www.w3.org/2000/svg" xmlns:xlink="http://www.w3.org/1999/xlink" version="1.1" x="0" y="0" viewBox="0.35833249999999595 0.3587183000000067 89.28326340000001 89.2876563" enable-background="new 0 0 90 90" xml:space="preserve" height="89.2876563" width="89.28326340000001" class="icon-none" data-fill-palette-color="accent" id="none"><polygon points="57.928,58.169 57.875,76.027 45.397,63.548 45.397,45.639 " fill="#f6caec" data-fill-palette-color="accent"></polygon><polygon points="76.027,57.875 58.475,57.927 45.826,45.279 63.432,45.279 " fill="#f6caec" data-fill-palette-color="accent"></polygon><polygon points="76.027,32.125 63.432,44.721 45.707,44.721 58.355,32.073 " fill="#f6caec" data-fill-palette-color="accent"></polygon><polygon points="44.838,45.59 44.838,63.314 32.125,76.027 32.074,58.355 " fill="#f6caec" data-fill-palette-color="accent"></polygon><polygon points="57.928,31.712 45.397,44.243 45.397,26.452 57.875,13.974 " fill="#f6caec" data-fill-palette-color="accent"></polygon><polygon points="44.838,26.687 44.838,44.291 32.074,31.526 32.125,13.974 " fill="#f6caec" data-fill-palette-color="accent"></polygon><polygon points="44.479,44.721 26.569,44.721 13.974,32.125 31.832,32.073 " fill="#f6caec" data-fill-palette-color="accent"></polygon><polygon points="44.36,45.279 31.712,57.927 13.974,57.875 26.569,45.279 " fill="#f6caec" data-fill-palette-color="accent"></polygon><rect x="58.48" y="58.48" width="18.049" height="18.049" fill="#f6caec" data-fill-palette-color="accent"></rect><polygon points="76.527,13.474 76.527,31.516 58.914,31.516 58.912,31.518 58.484,31.516 58.484,13.474 " fill="#f6caec" data-fill-palette-color="accent"></polygon><polygon points="31.518,30.971 31.516,31.516 13.474,31.516 13.474,13.474 31.516,13.474 31.516,30.968 " fill="#f6caec" data-fill-palette-color="accent"></polygon><rect x="13.471" y="58.48" width="18.05" height="18.049" fill="#f6caec" data-fill-palette-color="accent"></rect><rect x="67.864" y="35.981" transform="matrix(0.7071 -0.7071 0.7071 0.7071 -9.3022 67.5465)" width="18.042" height="18.042" fill="#f6caec" data-fill-palette-color="accent"></rect><rect x="35.979" y="4.094" transform="matrix(0.7071 -0.7071 0.7071 0.7071 3.9068 35.6621)" width="18.042" height="18.042" fill="#f6caec" data-fill-palette-color="accent"></rect><rect x="4.095" y="35.98" transform="matrix(0.7071 -0.7071 0.7071 0.7071 -27.9787 22.4536)" width="18.041" height="18.041" fill="#f6caec" data-fill-palette-color="accent"></rect><rect x="35.98" y="67.865" transform="matrix(0.7071 -0.7071 0.7071 0.7071 -41.1877 54.3437)" width="18.04" height="18.041" fill="#f6caec" data-fill-palette-color="accent"></rect></svg></g></g></svg></g><defs></defs></svg><rect width="395.52" height="247.2" fill="none" stroke="none" visibility="hidden"></rect></g></svg></g></svg>